<svg xmlns="http://www.w3.org/2000/svg" viewBox="0 0 64 64" width="64" height="64">
  <defs>
    <linearGradient id="taxOfficeGrad" x1="0%" y1="0%" x2="100%" y2="100%">
      <stop offset="0%" style="stop-color:#2E7D32"/>
      <stop offset="100%" style="stop-color:#1B5E20"/>
    </linearGradient>
  </defs>
  <circle cx="32" cy="32" r="30" fill="#F1F8E9"/>
  <g transform="translate(32,32)">
    <rect x="-12" y="-14" width="24" height="28" rx="3" fill="#333"/>
    <rect x="-10" y="-12" width="20" height="24" rx="2" fill="#FFF"/>
    <rect x="-8" y="-10" width="16" height="6" rx="1" fill="url(#taxOfficeGrad)"/>
    <g fill="#333">
      <rect x="-7" y="-2" width="4" height="3" rx="0.5"/>
      <rect x="-1" y="-2" width="4" height="3" rx="0.5"/>
      <rect x="5" y="-2" width="4" height="3" rx="0.5"/>
      <rect x="-7" y="2" width="4" height="3" rx="0.5"/>
      <rect x="-1" y="2" width="4" height="3" rx="0.5"/>
      <rect x="5" y="2" width="4" height="3" rx="0.5"/>
      <rect x="-7" y="6" width="4" height="3" rx="0.5"/>
      <rect x="-1" y="6" width="4" height="3" rx="0.5"/>
      <rect x="5" y="6" width="4" height="3" rx="0.5"/>
    </g>
  </g>
</svg>